{"title":"Gravity Italian Audio TSCamRip.flv","uid":9018663,"size":504734415,"categoryP":"video","categoryS":"movies","magnet":"?xt=urn:btih:7cfd824600201fed22d1c0abc9f791d9031b1445&amp;dn=Gravity+Italian+Audio+TSCamRip.flv&amp;tr=udp%3A%2F%2Ftracker.openbittorrent.com%3A80&amp;tr=udp%3A%2F%2Fopen.demonii.com%3A1337&amp;tr=udp%3A%2F%2Ftracker.coppersurfer.tk%3A6969&amp;tr=udp%3A%2F%2Fexodus.desync.com%3A6969","seeders":1,"leechers":0,"uploader":"globeplus","files":-1,"time":1381247669,"description":"Gravity Italian Audio TSCamRip.flv\n\nFormat                                   : Flash Video\nFile size                                : 481 MiB\nDuration                                 : 1h 23mn\nOverall bit rate                         : 803 Kbps\nWriting application                      : Encoded By\nTagging application                      : Yet Another Metadata Injector for FLV - Version 1.9\n\nVideo\n\nFormat                                   : AVC\nFormat/Info                              : Advanced Video Codec\nFormat profile                           : &lt;a class=&quot;__cf_email__&quot; href=&quot;/cdn-cgi/l/email-protection&quot; data-cfemail=&quot;561e3f313e161a657866&quot;&gt;[email&amp;#160;protected]&lt;/a&gt;&lt;script cf-hash='f9e31' type=&quot;text/javascript&quot;&gt;\n/* &lt;![CDATA[ */!function(){try{var t=&quot;currentScript&quot;in document?document.currentScript:function(){for(var t=document.getElementsByTagName(&quot;script&quot;),e=t.length;e--;)if(t[e].getAttribute(&quot;cf-hash&quot;))return t[e]}();if(t&amp;&amp;t.previousSibling){var e,r,n,i,c=t.previousSibling,a=c.getAttribute(&quot;data-cfemail&quot;);if(a){for(e=&quot;&quot;,r=parseInt(a.substr(0,2),16),n=2;a.length-n;n+=2)i=parseInt(a.substr(n,2),16)^r,e+=String.fromCharCode(i);e=document.createTextNode(e),c.parentNode.replaceChild(e,c)}}}catch(u){}}();/* ]]&gt; */&lt;/script&gt;\nFormat settings, CABAC                   : Yes\nFormat settings, ReFrames                : 4 frames\nCodec ID                                 : 7\nDuration                                 : 1h 23mn\nBit rate                                 : 700 Kbps\nWidth                                    : 720 pixels\nHeight                                   : 400 pixels\nDisplay aspect ratio                     : 16:9\nFrame rate mode                          : Constant\nFrame rate                               : 25.000 fps\nColor space                              : YUV\nChroma subsampling                       : 4:2:0\nBit depth                                : 8 bits\nScan type                                : Progressive\nBits/(Pixel*Frame)                       : 0.097\nStream size                              : 420 MiB (87%)\nWriting library                          : x264 core 128 r2 198a7ea\n\n\nAudio\n\nFormat                                   : AAC\nFormat/Info                              : Advanced Audio Codec\nFormat profile                           : LC\nCodec ID                                 : 10\nDuration                                 : 1h 23mn\nBit rate                                 : 94.4 Kbps\nChannel(s)                               : 2 channels\nChannel positions                        : Front: L R\nSampling rate                            : 44.1 KHz\nCompression mode                         : Lossy\nDelay relative to video                  : 57ms\nStream size                              : 60.3 MiB (13%)\n\n\nPlot\n\nBio-medical engineer Dr. Ryan Stone is a Mission Specialist on her first space shuttle mission, accompanied by veteran astronaut Matt Kowalski, who is commanding his final expedition. During the final spacewalk to service the Hubble Space Telescope, Mission Control in Houston warns Stone and Kowalski that debris from a Russian anti-satellite test has caused a chain reaction of destruction and that they must abort the mission. Shortly afterward, communications from Mission Control are lost, though Stone and Kowalski continue to transmit in hopes that the ground crew can hear them.\n\nHigh-speed debris damages the space shuttle Explorer and Stone tumbles out of control away from it. Kowalski, who is wearing a thruster pack, navigates to Stone and retrieves her. Tethered together, the two make their way back to Explorer, where they discover it has been damaged far beyond usability, and the rest of the crew are dead. They decide to use the thruster pack to make their way to the International Space Station (ISS), which is in orbit only about 100 km (60 mi) away. Kowalski estimates they have 90 minutes before the debris field completes an orbit and threatens them again.\n\n\n\n* enjoy ...\n","torrent":{"xt":"urn:btih:7cfd824600201fed22d1c0abc9f791d9031b1445","amp;dn":"Gravity+Italian+Audio+TSCamRip.flv","amp;tr":["udp%3A%2F%2Ftracker.openbittorrent.com%3A80","udp%3A%2F%2Fopen.demonii.com%3A1337","udp%3A%2F%2Ftracker.coppersurfer.tk%3A6969","udp%3A%2F%2Fexodus.desync.com%3A6969"],"infoHash":"7cfd824600201fed22d1c0abc9f791d9031b1445","infoHashBuffer":{"type":"Buffer","data":[124,253,130,70,0,32,31,237,34,209,192,171,201,247,145,217,3,27,20,69]},"announce":[],"urlList":[]}}